Coordinates
version=1
nRows=30
nColumns=23
inDegrees=yes

Units are S.I. units (second, meters, Newtons, ...)
If the header above contains a line with 'inDegrees', this indicates whether rotational values are in degrees (yes) or radians (no).

endheader
time	pelvis_tilt	pelvis_list	pelvis_rotation	pelvis_tx	pelvis_ty	pelvis_tz	hip_flexion_r	hip_adduction_r	hip_rotation_r	knee_angle_r	knee_angle_r_beta	ankle_angle_r	subtalar_angle_r	mtp_angle_r	hip_flexion_l	hip_adduction_l	hip_rotation_l	knee_angle_l	knee_angle_l_beta	ankle_angle_l	subtalar_angle_l	mtp_angle_l
     22.50000000	      4.14357935	      7.59253288	     11.44384422	      1.96758055	      0.83001159	      0.99569734	     -5.70204045	    -11.68244426	    -17.75961964	     93.02119843	      1.62352619	    -13.97966169	    -20.40501108	      0.00000000	     21.37320738	     15.07017284	      4.35834405	     41.44588133	      0.72336709	      9.17882882	     -7.19397966	      0.00000000
     22.50666667	      4.36623183	      7.83820094	     11.84289380	      1.96529081	      0.82695614	      0.99551934	     -3.42280035	    -12.69321778	    -17.42504852	     96.18728656	      1.67878485	    -13.17532891	    -20.19499783	      0.00000000	     20.46144372	     15.29490461	      4.67128435	     43.55966053	      0.76025950	     11.61074062	     -6.97758262	      0.00000000
     22.51333333	      4.56466254	      8.03728377	     12.03215463	      1.96294161	      0.82439565	      0.99569772	     -0.90724797	    -13.62557090	    -16.74632569	     99.03907112	      1.72855788	    -12.36280181	    -19.83327637	      0.00000000	     19.42318624	     15.30246611	      4.82360536	     45.32730275	      0.79111067	     13.97321764	     -6.39651174	      0.00000000
     22.52000000	      5.36131861	      8.15359832	     12.23362215	      1.96055000	      0.82339499	      0.99587158	      0.97568895	    -14.17841552	    -16.05635945	    101.22958118	      1.76678949	    -12.06358998	    -19.79525421	      0.00000000	     17.39345382	     15.20108416	      5.57961413	     46.49979673	      0.81157455	     15.68157118	     -6.34680393	      0.00000000
     22.52666667	      4.93938154	      8.33386591	     11.90082810	      1.95826077	      0.82100225	      0.99679618	      4.67085537	    -15.14343627	    -14.55432283	    103.63505186	      1.80877288	    -10.91248185	    -18.59970119	      0.00000000	     16.81387304	     14.83494537	      4.79843267	     47.69370519	      0.83241219	     18.25446778	     -4.54568658	      0.00000000
     22.53333333	      5.18087112	      8.40624338	     11.60167921	      1.95606722	      0.82030229	      0.99767635	      7.57929785	    -15.61481906	    -13.14508953	    105.28012959	      1.83748490	    -10.32474808	    -17.89056264	      0.00000000	     15.15728732	     14.34639758	      4.58310599	     48.26649360	      0.84240923	     20.06170343	     -3.47036964	      0.00000000
     22.54000000	      5.22734724	      8.37502826	     11.27230974	      1.95406493	      0.81989711	      0.99853668	     10.73837941	    -15.90467103	    -11.68376110	    106.51132720	      1.85897335	     -9.78182102	    -17.07891849	      0.00000000	     13.55990496	     13.72323241	      4.24627992	     48.54452912	      0.84726187	     21.74742467	     -2.06058928	      0.00000000
     22.54666667	      5.33730508	      8.31981419	     10.88299929	      1.95225099	      0.82015222	      0.99938505	     13.77755552	    -16.01695663	    -10.20909726	    107.26435406	      1.87211615	     -9.28312649	    -16.26098831	      0.00000000	     11.68041203	     13.04551976	      3.86497374	     48.41838740	      0.84506028	     23.09673881	     -0.74888215	      0.00000000
     22.55333333	      5.57346016	      8.28267850	     10.46978832	      1.95068881	      0.82120422	      1.00009691	     16.52766844	    -16.04510953	     -8.82430907	    107.50331575	      1.87628682	     -8.81886326	    -15.46138177	      0.00000000	      9.37860594	     12.44662353	      3.64367541	     47.77039976	      0.83375076	     23.96030985	      0.06211497	      0.00000000
     22.56000000	      5.65754426	      8.16447861	     10.12355194	      1.94935398	      0.82255672	      1.00060670	     19.28503310	    -15.94024009	     -7.59600344	    107.30882485	      1.87289231	     -8.37323354	    -14.73072203	      0.00000000	      7.10649182	     11.80330003	      3.41715456	     46.85803716	      0.81782703	     24.60850873	      1.03739837	      0.00000000
     22.56666667	      5.68229839	      7.96459258	      9.82521600	      1.94829607	      0.82433606	      1.00098209	     21.89296580	    -15.70910909	     -6.57945320	    106.65191957	      1.86142715	     -7.93145277	    -14.18352708	      0.00000000	      4.77033363	     11.09547064	      3.18863561	     45.67485810	      0.79717666	     24.95384001	      2.10865878	      0.00000000
     22.57333333	      5.84388611	      7.59708341	      9.66029032	      1.94756034	      0.82683114	      1.00115945	     24.01966870	    -15.25951623	     -5.96411959	    105.45510745	      1.84053884	     -7.61768374	    -13.97623968	      0.00000000	      2.16771548	     10.19299939	      3.07944846	     44.21684125	      0.77172946	     25.02459028	      3.16930253	      0.00000000
     22.58000000	      5.59913534	      7.29842244	      9.56137708	      1.94703494	      0.82919748	      1.00107700	     26.40332622	    -14.97263054	     -5.42399520	    103.96677749	      1.81456258	     -7.28823473	    -13.92049853	      0.00000000	     -0.11078456	      9.53815464	      3.13563322	     42.49736320	      0.74171891	     24.55597053	      3.76474939	      0.00000000
     22.58666667	      5.37895998	      6.90074987	      9.57166482	      1.94678237	      0.83205083	      1.00078384	     28.45073019	    -14.59428055	     -5.17822717	    102.02778595	      1.78072079	     -7.03513587	    -14.16447080	      0.00000000	     -2.47672747	      8.78134541	      3.29936812	     40.57134429	      0.70810354	     23.76080976	      4.31361613	      0.00000000
     22.59333333	      5.80974413	      6.30419393	      9.56088983	      1.94699811	      0.83618778	      1.00056569	     29.36431192	    -13.88055298	     -5.35253070	     99.47165554	      1.73610790	     -7.00888583	    -14.95552517	      0.00000000	     -5.69964148	      7.72686393	      3.63356778	     38.21775134	      0.66702559	     22.61292523	      4.46717294	      0.00000000
     22.60000000	      5.95317724	      5.51936279	      9.91281127	      1.94750154	      0.84031285	      0.99981995	     30.22098728	    -13.26626743	     -6.05755353	     96.53562556	      1.68486451	     -6.95031019	    -15.68277969	      0.00000000	     -8.51238634	      6.46844208	      4.15027104	     35.90338236	      0.62663223	     20.98256995	      4.68268728	      0.00000000
     22.60666667	      5.63770062	      4.88802234	      9.98099903	      1.94813688	      0.84380013	      0.99947629	     31.60153988	    -12.65016029	     -6.32965261	     93.48856882	      1.63168334	     -7.00834001	    -16.65657109	      0.00000000	    -10.81577270	      5.48068514	      4.28443547	     33.51396327	      0.58492900	     18.96265822	      4.83937057	      0.00000000
     22.61333333	      5.52270330	      4.03291819	     10.27228345	      1.94911843	      0.84782626	      0.99880303	     32.36149103	    -11.94033388	     -7.10019470	     89.96366047	      1.57016208	     -7.09228883	    -17.54822100	      0.00000000	    -13.28031270	      4.19216446	      4.58900202	     31.04152796	      0.54177687	     16.50455391	      4.78701726	      0.00000000
     22.62000000	      5.28299044	      3.15242078	     10.51771447	      1.95033367	      0.85161120	      0.99819033	     33.09867801	    -11.21319259	     -7.87991623	     86.20610408	      1.50458035	     -7.15908395	    -18.21096951	      0.00000000	    -15.51783392	      2.90918011	      4.76458858	     28.63260895	      0.49973330	     13.83705256	      4.70347371	      0.00000000
     22.62666667	      4.71236965	      2.33751851	     10.51482212	      1.95158432	      0.85483336	      0.99797479	     34.16928847	    -10.37054313	     -8.29507319	     82.30284530	      1.43645563	     -7.30747756	    -18.85254140	      0.00000000	    -17.28527654	      1.81743603	      4.55273550	     26.35159111	      0.45992203	     10.88637361	      4.71404068	      0.00000000
     22.63333333	      4.11511621	      1.47755665	     10.51772397	      1.95301407	      0.85793443	      0.99771699	     35.05878287	     -9.51337460	     -8.78864929	     78.13435567	      1.36370177	     -7.36952518	    -18.97958989	      0.00000000	    -18.89069447	      0.70821593	      4.26558218	     24.22932783	      0.42288155	      7.72406095	      4.64430202	      0.00000000
     22.64000000	      3.27637612	      0.74375244	     10.24877735	      1.95443327	      0.86043458	      0.99790852	     36.17245791	     -8.57428250	     -8.86344408	     73.86064988	      1.28911153	     -7.40486587	    -18.80256546	      0.00000000	    -20.07976291	     -0.13637746	      3.61266125	     22.39570473	      0.39087879	      4.51815697	      4.68257817	      0.00000000
     22.64666667	      2.33210076	      0.06320019	      9.84928654	      1.95589775	      0.86259837	      0.99830892	     37.26126018	     -7.58543132	     -8.75957728	     69.41755995	      1.21156498	     -7.30449994	    -18.05793258	      0.00000000	    -20.97347541	     -0.85045089	      2.74677655	     20.88485013	      0.36450940	      1.25516848	      4.67773595	      0.00000000
     22.65333333	      1.29847210	     -0.49277194	      9.23249224	      1.95734142	      0.86435596	      0.99905267	     38.33984075	     -6.52140348	     -8.31303896	     64.86022089	      1.13202441	     -7.03016049	    -16.78162583	      0.00000000	    -21.59815004	     -1.32907725	      1.63471042	     19.72869657	      0.34433071	     -1.91580507	      4.59513795	      0.00000000
     22.66000000	      0.45447362	     -1.02162045	      8.62489843	      1.95877973	      0.86619325	      0.99982130	     38.96228005	     -5.42979788	     -7.85960022	     60.06184650	      1.04827698	     -6.67609766	    -15.02820871	      0.00000000	    -22.20595003	     -1.78318884	      0.52373166	     18.94344345	      0.33062546	     -5.09070031	      4.27860254	      0.00000000
     22.66666667	     -0.82355536	     -1.23061947	      7.77553251	      1.96005013	      0.86706955	      1.00106483	     40.01539518	     -4.45520962	     -6.85041697	     55.35603406	      0.96614506	     -6.10381585	    -12.82126105	      0.00000000	    -22.03118847	     -1.80523687	     -0.87516115	     18.84863854	      0.32897080	     -7.96762528	      3.93408076	      0.00000000
     22.67333333	     -1.20375927	     -1.57640131	      6.98262802	      1.96148013	      0.86892938	      1.00216629	     39.73887836	     -3.28645619	     -6.07139407	     50.32140150	      0.87827414	     -5.32723604	    -10.09453437	      0.00000000	    -22.76993726	     -2.05141902	     -2.26316088	     18.75914324	      0.32740881	    -10.85789776	      3.18331448	      0.00000000
     22.68000000	     -1.78094533	     -1.72800153	      6.15073852	      1.96278580	      0.87014866	      1.00347359	     39.55992409	     -2.27679728	     -5.06176880	     45.39156898	      0.79223233	     -4.41363662	     -7.14777207	      0.00000000	    -22.92809512	     -2.09388794	     -3.70723373	     19.40632142	      0.33870420	    -13.32194511	      2.18544158	      0.00000000
     22.68666667	     -2.18565210	     -1.80562793	      5.38763104	      1.96402387	      0.87122762	      1.00479707	     39.02725269	     -1.38895333	     -4.10537993	     40.53194382	      0.70741587	     -3.50223841	     -4.13861235	      0.00000000	    -22.96358606	     -2.13958270	     -5.14400028	     20.63099218	      0.36007874	    -15.47944891	      0.84728239	      0.00000000
     22.69333333	     -2.42504862	     -1.82690477	      4.70938815	      1.96517387	      0.87210014	      1.00612656	     38.20458842	     -0.63189499	     -3.25774857	     35.88000297	      0.62622419	     -2.61671238	     -1.25184296	      0.00000000	    -22.85711435	     -2.21725924	     -6.50730410	     22.46491304	      0.39208670	    -17.24050906	     -0.86318421	      0.00000000
